# xmcd
# 
# Track frame offsets:
#     150
#     16101
#     30651
#     49762
# 
# Disc length: 964
# 
# Revision: 0
# Processed by: cddbd v1.5.2PL0 Copyright (c) Steve Scherf et al.
# Submitted via: BonkEnc v1.0.5
# 
DISCID=2403c204
DTITLE=Barry Manilow - More Acoustic Manilow
DYEAR=2007
DGENRE=Easy Listening
TTITLE0=Somewhere in the Night
TTITLE1=Can't Smile Without You
TTITLE2=This One's For You
TTITLE3=Could It Be Magic (Trevor Horn Dance Mix)
EXTD=
EXTT0=
EXTT1=
EXTT2=
EXTT3=
PLAYORDER=
